#N canvas 81 86 1440 775 12;
#X text 415 9 this is an abstraction;
#X obj 19 18 inlet;
#X floatatom 22 68 5 0 0 0 - - -;
#X obj 28 390 outlet~;
#X obj 25 128 osc~;
#X obj 25 152 *~;
#X obj 81 101 r h1;
#X obj 81 125 pack f 30;
#X obj 81 149 line~;
#X obj 25 226 +~;
#X obj 161 130 osc~;
#X obj 161 154 *~;
#X obj 217 127 pack f 30;
#X obj 217 151 line~;
#X obj 297 128 osc~;
#X obj 297 152 *~;
#X obj 353 125 pack f 30;
#X obj 353 149 line~;
#X obj 433 130 osc~;
#X obj 433 154 *~;
#X obj 489 127 pack f 30;
#X obj 489 151 line~;
#X obj 233 253 osc~;
#X obj 233 277 *~;
#X obj 289 250 pack f 30;
#X obj 289 274 line~;
#X obj 233 351 +~;
#X obj 369 255 osc~;
#X obj 369 279 *~;
#X obj 425 252 pack f 30;
#X obj 425 276 line~;
#X obj 505 253 osc~;
#X obj 505 277 *~;
#X obj 561 250 pack f 30;
#X obj 561 274 line~;
#X obj 641 255 osc~;
#X obj 641 279 *~;
#X obj 697 252 pack f 30;
#X obj 697 276 line~;
#X obj 217 103 r h2;
#X obj 353 101 r h3;
#X obj 489 103 r h4;
#X obj 289 226 r h5;
#X obj 425 228 r h6;
#X obj 561 226 r h7;
#X obj 697 228 r h8;
#X obj 19 42 mtof;
#X obj 27 327 +~;
#X obj 787 255 osc~;
#X obj 787 279 *~;
#X obj 843 252 pack f 30;
#X obj 843 276 line~;
#X obj 27 351 /~ 9;
#X obj 25 104 * 0.5;
#X obj 161 106 * 0.33;
#X obj 297 104 * 1;
#X obj 433 106 * 2;
#X obj 233 229 * 3;
#X obj 369 231 * 4;
#X obj 504 229 * 5;
#X obj 787 231 * 7;
#X obj 843 228 r h9;
#X obj 641 231 * 6;
#X connect 1 0 46 0;
#X connect 2 0 53 0;
#X connect 2 0 54 0;
#X connect 2 0 55 0;
#X connect 2 0 56 0;
#X connect 2 0 57 0;
#X connect 2 0 58 0;
#X connect 2 0 59 0;
#X connect 2 0 60 0;
#X connect 2 0 62 0;
#X connect 4 0 5 0;
#X connect 5 0 9 0;
#X connect 6 0 7 0;
#X connect 7 0 8 0;
#X connect 8 0 5 1;
#X connect 9 0 47 0;
#X connect 10 0 11 0;
#X connect 11 0 9 1;
#X connect 12 0 13 0;
#X connect 13 0 11 1;
#X connect 14 0 15 0;
#X connect 15 0 9 1;
#X connect 16 0 17 0;
#X connect 17 0 15 1;
#X connect 18 0 19 0;
#X connect 19 0 9 1;
#X connect 20 0 21 0;
#X connect 21 0 19 1;
#X connect 22 0 23 0;
#X connect 23 0 26 0;
#X connect 24 0 25 0;
#X connect 25 0 23 1;
#X connect 26 0 47 1;
#X connect 27 0 28 0;
#X connect 28 0 26 1;
#X connect 29 0 30 0;
#X connect 30 0 28 1;
#X connect 31 0 32 0;
#X connect 32 0 26 1;
#X connect 33 0 34 0;
#X connect 34 0 32 1;
#X connect 35 0 36 0;
#X connect 36 0 26 1;
#X connect 37 0 38 0;
#X connect 38 0 36 1;
#X connect 39 0 12 0;
#X connect 40 0 16 0;
#X connect 41 0 20 0;
#X connect 42 0 24 0;
#X connect 43 0 29 0;
#X connect 44 0 33 0;
#X connect 45 0 37 0;
#X connect 46 0 2 0;
#X connect 47 0 52 0;
#X connect 48 0 49 0;
#X connect 49 0 26 1;
#X connect 50 0 51 0;
#X connect 51 0 49 1;
#X connect 52 0 3 0;
#X connect 53 0 4 0;
#X connect 54 0 10 0;
#X connect 55 0 14 0;
#X connect 56 0 18 0;
#X connect 57 0 22 0;
#X connect 58 0 27 0;
#X connect 59 0 31 0;
#X connect 60 0 48 0;
#X connect 61 0 50 0;
#X connect 62 0 35 0;
