#N canvas 401 23 642 788 12;
#X floatatom 59 33 5 0 0 0 - - -;
#X obj 59 83 sel 0;
#X obj 24 117 bng 15 250 50 0 empty empty empty 17 7 0 10 -262144 -1
-1;
#X floatatom 158 77 5 0 0 0 - - -;
#X obj 130 48 / 127;
#X obj 82 383 line~;
#X obj 56 173 r R;
#X floatatom 56 197 5 0 0 0 - - -;
#X obj 25 226 pack;
#X msg 23 195 0;
#X obj 239 192 bng 15 250 50 0 empty empty empty 17 7 0 10 -262144
-1 -1;
#X floatatom 272 214 5 0 0 0 - - -;
#X obj 241 243 pack;
#X obj 272 190 r A;
#X msg 239 212 1;
#X obj 131 203 del;
#X floatatom 153 178 5 0 0 0 - - -;
#X obj 153 154 r A;
#X obj 129 157 bng 15 250 50 0 empty empty empty 17 7 0 10 -262144
-1 -1;
#X floatatom 164 225 5 0 0 0 - - -;
#X obj 164 201 r S;
#X obj 164 248 dbtorms;
#X obj 131 249 f;
#X obj 131 301 pack;
#X floatatom 174 298 5 0 0 0 - - -;
#X obj 174 274 r D;
#X obj 82 407 *~;
#X obj 158 100 t b b f, f 22;
#X floatatom 295 339 5 0 0 0 - - -;
#X obj 24 137 t b b;
#X msg 73 138 stop;
#X obj 60 4 inlet;
#X obj 82 431 outlet~;
#X msg 431 113 30;
#X obj 431 137 s A;
#X obj 428 85 loadbang;
#X connect 0 0 1 0;
#X connect 1 0 2 0;
#X connect 1 1 4 0;
#X connect 2 0 29 0;
#X connect 3 0 27 0;
#X connect 4 0 3 0;
#X connect 5 0 26 0;
#X connect 6 0 7 0;
#X connect 7 0 8 1;
#X connect 8 0 5 0;
#X connect 9 0 8 0;
#X connect 10 0 14 0;
#X connect 11 0 12 1;
#X connect 12 0 5 0;
#X connect 13 0 11 0;
#X connect 14 0 12 0;
#X connect 15 0 22 0;
#X connect 16 0 15 1;
#X connect 17 0 16 0;
#X connect 18 0 15 0;
#X connect 19 0 21 0;
#X connect 20 0 19 0;
#X connect 21 0 22 1;
#X connect 22 0 23 0;
#X connect 23 0 5 0;
#X connect 24 0 23 1;
#X connect 25 0 24 0;
#X connect 26 0 32 0;
#X connect 27 0 18 0;
#X connect 27 1 10 0;
#X connect 27 2 28 0;
#X connect 28 0 26 1;
#X connect 29 0 9 0;
#X connect 29 1 30 0;
#X connect 30 0 15 0;
#X connect 31 0 0 0;
#X connect 33 0 34 0;
#X connect 35 0 33 0;
