#N canvas 0 23 1440 788 12;
#X obj 491 50 r fromGUI;
#X obj 491 74 list trim;
#X floatatom 491 146 5 0 0 0 - - -;
#X floatatom 548 168 5 0 0 0 - - -;
#X obj 491 122 unpack f f t;
#X obj 233 219 route 0 1 2 3 4 5 6 7 8 9 10 11 12 13 14 15 16 17 18
19 20 21 22 23, f 80;
#X obj 35 318 route 0 1 2 3;
#X msg 29 348 1046.5;
#X msg 22 376 523.251;
#X msg 17 405 261.626;
#X msg 9 431 130.813;
#X obj 151 319 route 0 1 2 3;
#X msg 145 349 1077.17;
#X msg 137 377 538.584;
#X msg 129 406 269.292;
#X msg 125 432 134.646;
#X obj 267 322 route 0 1 2 3;
#X msg 261 352 1108.73;
#X msg 253 380 554.365;
#X msg 245 409 277.183;
#X msg 241 434 138.591;
#X obj 383 323 route 0 1 2 3;
#X msg 376 353 1141.22;
#X msg 369 381 570.609;
#X msg 361 409 285.305;
#X msg 357 434 142.652;
#X obj 31 522 route 0 1 2 3;
#X msg 24 552 1174.66;
#X msg 17 580 587.33;
#X msg 9 608 293.665;
#X msg 5 633 146.832;
#X obj 147 525 route 0 1 2 3;
#X msg 140 555 1209.08;
#X msg 133 583 604.54;
#X msg 128 611 302.27;
#X msg 121 636 151.135;
#X obj 264 526 route 0 1 2 3;
#X msg 257 556 1244.51;
#X msg 245 582 622.254;
#X msg 242 611 311.127;
#X msg 238 637 155.563;
#X obj 380 527 route 0 1 2 3;
#X msg 373 557 1280.97;
#X msg 366 585 640.487;
#X msg 364 613 320.244;
#X msg 353 638 160.122;
#X obj 45 700 route 0 1 2 3;
#X msg 38 730 1318.51;
#X msg 31 757 659.255;
#X msg 23 785 329.628;
#X msg 17 811 164.814;
#X obj 177 702 route 0 1 2 3;
#X msg 167 730 1357.15;
#X msg 165 760 678.573;
#X msg 157 786 339.286;
#X msg 149 813 169.643;
#X obj 295 703 route 0 1 2 3;
#X msg 288 733 1396.91;
#X msg 281 760 698.456;
#X msg 273 788 349.228;
#X msg 267 814 174.614;
#X obj 415 709 route 0 1 2 3;
#X msg 408 739 1437.85;
#X msg 401 766 718.923;
#X msg 393 794 359.461;
#X msg 387 820 179.731;
#X obj 46 850 route 0 1 2 3;
#X obj 162 851 route 0 1 2 3;
#X obj 278 854 route 0 1 2 3;
#X obj 394 855 route 0 1 2 3;
#X obj 613 334 route 0 1 2 3;
#X obj 729 337 route 0 1 2 3;
#X obj 846 338 route 0 1 2 3;
#X obj 962 339 route 0 1 2 3;
#X obj 617 483 route 0 1 2 3;
#X obj 749 485 route 0 1 2 3;
#X obj 867 486 route 0 1 2 3;
#X obj 987 492 route 0 1 2 3;
#X msg 40 880 1479.98;
#X msg 33 908 739.989;
#X msg 24 937 369.994;
#X msg 20 963 184.997;
#X msg 156 881 1523.34;
#X msg 148 909 761.672;
#X msg 139 938 380.836;
#X msg 135 964 190.418;
#X msg 268 882 1567.98;
#X msg 262 914 783.991;
#X msg 259 940 391.995;
#X msg 249 971 195.998;
#X msg 385 885 1613.93;
#X msg 380 913 806.964;
#X msg 372 941 403.482;
#X msg 368 966 201.741;
#X msg 606 364 1661.22;
#X msg 599 391 830.609;
#X msg 590 418 415.305;
#X msg 587 446 207.652;
#X msg 722 367 1709.9;
#X msg 715 394 854.948;
#X msg 704 420 427.474;
#X msg 703 448 213.737;
#X msg 832 396 880;
#X msg 824 423 440;
#X msg 820 449 220;
#X msg 839 368 1760;
#X msg 955 369 1811.57;
#X msg 946 398 905.786;
#X msg 934 450 226.446;
#X msg 940 424 452.893;
#X msg 610 512 1864.66;
#X msg 607 541 932.328;
#X msg 595 568 466.164;
#X msg 589 594 233.082;
#X msg 738 513 1919.29;
#X msg 737 543 959.647;
#X msg 729 569 479.823;
#X msg 721 596 239.912;
#X msg 860 517 1975.53;
#X msg 853 543 987.767;
#X msg 842 568 493.883;
#X msg 839 597 246.942;
#X msg 980 522 2033.42;
#X msg 971 549 1016.71;
#X msg 965 577 508.355;
#X msg 959 603 254.178;
#X floatatom 668 970 5 0 0 0 - - -;
#X text 596 970 pitch ->;
#X floatatom 621 1038 5 0 0 0 - - -;
#X floatatom 703 1039 5 0 0 0 - - -;
#X floatatom 750 1041 5 0 0 0 - - -;
#X obj 663 1069 pack f f f;
#X text 551 1038 voice no.;
#X text 661 1038 pitch;
#X text 790 1042 velocity;
#X obj 663 1251 +~;
#X obj 508 1429 dac~;
#X obj 685 1154 voice;
#X obj 707 1184 voice;
#X obj 729 1212 voice;
#X obj 663 1130 voice;
#X obj 1042 905 vsl 25 100 0 1 0 0 empty empty empty 0 -9 0 10 -262144
-1 -1 9900 1;
#X obj 1042 1013 s h1;
#X obj 1083 905 vsl 25 100 0 1 0 0 empty empty empty 0 -9 0 10 -262144
-1 -1 9900 1;
#X obj 1123 905 vsl 25 100 0 1 0 0 empty empty empty 0 -9 0 10 -262144
-1 -1 9900 1;
#X obj 1164 905 vsl 25 100 0 1 0 0 empty empty empty 0 -9 0 10 -262144
-1 -1 9900 1;
#X obj 1204 905 vsl 25 100 0 1 0 0 empty empty empty 0 -9 0 10 -262144
-1 -1 0 1;
#X obj 1245 905 vsl 25 100 0 1 0 0 empty empty empty 0 -9 0 10 -262144
-1 -1 0 1;
#X obj 1285 905 vsl 25 100 0 1 0 0 empty empty empty 0 -9 0 10 -262144
-1 -1 0 1;
#X obj 1326 905 vsl 25 100 0 1 0 0 empty empty empty 0 -9 0 10 -262144
-1 -1 0 1;
#X obj 1083 1013 s h2;
#X obj 1123 1013 s h3;
#X obj 1164 1013 s h4;
#X obj 1204 1013 s h5;
#X obj 1245 1013 s h6;
#X obj 1285 1013 s h7;
#X obj 1326 1013 s h8;
#X text 957 648 Harmonics Preset styles :::::::::::::::::::::::::::::::::
:::::::::::::::::::::::::::::::::::::::::::::::::::::::::, f 58;
#X obj 1042 871 unpack f f f f f f f f f, f 41;
#X obj 1367 906 vsl 25 100 0 1 0 0 empty empty empty 0 -9 0 10 -262144
-1 -1 6930 1;
#X obj 1367 1014 s h8;
#X obj 665 1006 poly 8 1;
#X obj 663 1098 route 1 2 3 4 5 6 7 8;
#X obj 762 1162 voice;
#X obj 784 1192 voice;
#X obj 806 1220 voice;
#X obj 740 1138 voice;
#X obj 513 1266 /~ 8;
#N canvas 804 74 450 300 jimmysmith 0;
#X obj 106 37 inlet;
#X obj 103 267 outlet;
#X msg 218 81 A 1 \; D 1 \; S 90 \; R 100 \;;
#X msg 58 141 1 1 1 0 0 0 0 0 0.7;
#X connect 0 0 3 0;
#X connect 0 0 2 0;
#X connect 3 0 1 0;
#X restore 1040 714 pd jimmysmith;
#N canvas 0 23 450 300 charlesearland 0;
#X obj 106 37 inlet;
#X obj 103 267 outlet;
#X msg 218 81 A 1 \; D 1 \; S 90 \; R 100 \;;
#X msg 58 141 1 1 1 1 0 0 0 0 0.7;
#X connect 0 0 3 0;
#X connect 0 0 2 0;
#X connect 3 0 1 0;
#X restore 1161 714 pd charlesearland;
#N canvas 0 23 450 300 fullorgan 0;
#X obj 106 37 inlet;
#X obj 103 267 outlet;
#X msg 218 81 A 1 \; D 1 \; S 90 \; R 100 \;;
#X msg 58 141 1 1 1 1 1 1 1 1 1;
#X connect 0 0 3 0;
#X connect 0 0 2 0;
#X connect 3 0 1 0;
#X restore 1179 769 pd fullorgan;
#X obj 666 931 ftom;
#X obj 804 935 * 127;
#X obj 652 133 s fO;
#X obj 1179 739 r fO;
#X obj 727 132 s jS;
#X obj 800 132 s cE;
#X obj 1039 687 r jS;
#X obj 1159 683 r cE;
#X floatatom 342 1147 5 0 200 0 - - -;
#X obj 342 1169 / 25;
#X floatatom 225 1133 5 0 150 0 - - -;
#X obj 225 1155 mtof;
#X obj 226 1200 pack 0 50;
#X obj 226 1225 line~;
#X floatatom 225 1178 7 0 0 0 - - -;
#X text 353 1042 "resonance";
#X text 352 1059 (>4 to oscillate);
#X text 390 1165 scaled to 0-8;
#X text 389 1147 0-200 control;
#X text 197 1040 resonant or cutoff frequency, f 16;
#X obj 341 1197 line~;
#X obj 224 1104 r cutoff;
#X obj 341 1104 r resonance;
#X obj 94 1322 bob~;
#X obj 882 129 s cutoff;
#X obj 968 132 s resonance;
#N canvas 0 26 1440 874 vfreeverb~ 0;
#N canvas 261 41 778 367 combfilters-left1 0;
#X obj 46 244 +~;
#X obj 61 219 *~ 0.3;
#X obj 61 194 lop~ 1000;
#X obj 231 244 +~;
#X obj 246 219 *~ 0.3;
#X obj 246 194 lop~ 1000;
#X obj 429 218 *~ 0.3;
#X obj 429 193 lop~ 1000;
#X obj 414 241 +~;
#X obj 610 218 *~ 0.3;
#X obj 610 193 lop~ 1000;
#X obj 595 241 +~;
#X obj 61 141 delread~ \$0-comb1left;
#X obj 246 142 delread~ \$0-comb2left;
#X obj 429 141 delread~ \$0-comb3left;
#X obj 610 141 delread~ \$0-comb4left;
#X obj 46 268 delwrite~ \$0-comb1left 100;
#X obj 231 268 delwrite~ \$0-comb2left 100;
#X obj 414 267 delwrite~ \$0-comb3left 100;
#X obj 595 267 delwrite~ \$0-comb4left 100;
#X obj 61 97 r \$0-comb1left;
#X obj 246 97 r \$0-comb2left;
#X obj 429 95 r \$0-comb3left;
#X obj 610 96 r \$0-comb4left;
#X obj 112 170 r \$0-frequency;
#X obj 297 170 r \$0-frequency;
#X obj 480 167 r \$0-frequency;
#X obj 661 167 r \$0-frequency;
#X obj 46 28 inlet~;
#X obj 338 326 outlet~;
#X floatatom 70 119 5 0 0 0 - - -;
#X floatatom 255 121 5 0 0 0 - - -;
#X floatatom 439 119 5 0 0 0 - - -;
#X floatatom 622 121 5 0 0 0 - - -;
#X obj 279 58 clip 0 0.99;
#X obj 279 29 r \$0-room;
#X connect 0 0 16 0;
#X connect 1 0 0 1;
#X connect 2 0 1 0;
#X connect 3 0 17 0;
#X connect 4 0 3 1;
#X connect 5 0 4 0;
#X connect 6 0 8 1;
#X connect 7 0 6 0;
#X connect 8 0 18 0;
#X connect 9 0 11 1;
#X connect 10 0 9 0;
#X connect 11 0 19 0;
#X connect 12 0 2 0;
#X connect 12 0 29 0;
#X connect 13 0 5 0;
#X connect 13 0 29 0;
#X connect 14 0 7 0;
#X connect 14 0 29 0;
#X connect 15 0 10 0;
#X connect 15 0 29 0;
#X connect 20 0 12 0;
#X connect 20 0 30 0;
#X connect 21 0 13 0;
#X connect 21 0 31 0;
#X connect 22 0 14 0;
#X connect 22 0 32 0;
#X connect 23 0 15 0;
#X connect 23 0 33 0;
#X connect 24 0 2 1;
#X connect 25 0 5 1;
#X connect 26 0 7 1;
#X connect 27 0 10 1;
#X connect 28 0 0 0;
#X connect 28 0 3 0;
#X connect 28 0 8 0;
#X connect 28 0 11 0;
#X connect 34 0 1 1;
#X connect 34 0 4 1;
#X connect 34 0 6 1;
#X connect 34 0 9 1;
#X connect 35 0 34 0;
#X restore 15 100 pd combfilters-left1;
#N canvas 27 56 358 650 diffusor-left 0;
#X obj 51 107 *~ 0.5;
#X obj 36 132 +~;
#X obj 66 132 -~;
#X obj 36 26 inlet~;
#X obj 81 238 *~ 0.5;
#X obj 66 263 +~;
#X obj 96 263 -~;
#X obj 111 368 *~ 0.5;
#X obj 96 393 +~;
#X obj 126 393 -~;
#X obj 141 498 *~ 0.5;
#X obj 126 523 +~;
#X obj 156 523 -~;
#X obj 156 605 outlet~;
#X text 95 28 freeverb's diffusor;
#X obj 156 576 hip~ 5;
#X floatatom 214 70 5 0 0 0 - - -;
#X floatatom 246 203 5 0 0 0 - - -;
#X floatatom 280 334 5 0 0 0 - - -;
#X floatatom 304 464 5 0 0 0 - - -;
#X obj 51 53 r \$0-allpass1left;
#X obj 51 80 delread~ \$0-allpass1left;
#X obj 36 158 delwrite~ \$0-allpass1left 40;
#X obj 81 186 r \$0-allpass2left;
#X obj 81 211 delread~ \$0-allpass2left;
#X obj 66 290 delwrite~ \$0-allpass2left 40;
#X obj 111 317 r \$0-allpass3left;
#X obj 111 341 delread~ \$0-allpass3left;
#X obj 96 420 delwrite~ \$0-allpass3left 40;
#X obj 141 447 r \$0-allpass4left;
#X obj 141 471 delread~ \$0-allpass4left;
#X obj 126 550 delwrite~ \$0-allpass4left 40;
#X connect 0 0 1 1;
#X connect 1 0 22 0;
#X connect 2 0 5 0;
#X connect 2 0 6 1;
#X connect 3 0 1 0;
#X connect 3 0 2 1;
#X connect 4 0 5 1;
#X connect 5 0 25 0;
#X connect 6 0 8 0;
#X connect 6 0 9 1;
#X connect 7 0 8 1;
#X connect 8 0 28 0;
#X connect 9 0 11 0;
#X connect 9 0 12 1;
#X connect 10 0 11 1;
#X connect 11 0 31 0;
#X connect 12 0 15 0;
#X connect 15 0 13 0;
#X connect 20 0 16 0;
#X connect 20 0 21 0;
#X connect 21 0 0 0;
#X connect 21 0 2 0;
#X connect 23 0 17 0;
#X connect 23 0 24 0;
#X connect 24 0 4 0;
#X connect 24 0 6 0;
#X connect 26 0 18 0;
#X connect 26 0 27 0;
#X connect 27 0 7 0;
#X connect 27 0 9 0;
#X connect 29 0 19 0;
#X connect 29 0 30 0;
#X connect 30 0 10 0;
#X connect 30 0 12 0;
#X restore 15 168 pd diffusor-left;
#N canvas 312 366 778 367 combfilters-left2 0;
#X obj 46 244 +~;
#X obj 61 219 *~ 0.3;
#X obj 61 194 lop~ 1000;
#X obj 231 244 +~;
#X obj 246 219 *~ 0.3;
#X obj 246 194 lop~ 1000;
#X obj 429 218 *~ 0.3;
#X obj 429 193 lop~ 1000;
#X obj 414 241 +~;
#X obj 610 218 *~ 0.3;
#X obj 610 193 lop~ 1000;
#X obj 595 241 +~;
#X obj 112 170 r \$0-frequency;
#X obj 297 170 r \$0-frequency;
#X obj 480 167 r \$0-frequency;
#X obj 661 167 r \$0-frequency;
#X obj 46 28 inlet~;
#X obj 338 326 outlet~;
#X obj 61 90 r \$0-comb5left;
#X obj 61 141 delread~ \$0-comb5left;
#X obj 46 268 delwrite~ \$0-comb5left 100;
#X obj 246 90 r \$0-comb6left;
#X obj 246 142 delread~ \$0-comb6left;
#X obj 231 268 delwrite~ \$0-comb6left 100;
#X obj 429 88 r \$0-comb7left;
#X obj 429 141 delread~ \$0-comb7left;
#X obj 414 267 delwrite~ \$0-comb7left 100;
#X obj 610 89 r \$0-comb8left;
#X obj 610 141 delread~ \$0-comb8left;
#X obj 595 267 delwrite~ \$0-comb8left 100;
#X floatatom 70 116 5 0 0 0 - - -;
#X floatatom 261 118 5 0 0 0 - - -;
#X floatatom 440 117 5 0 0 0 - - -;
#X floatatom 620 116 5 0 0 0 - - -;
#X obj 279 58 clip 0 0.99;
#X obj 279 28 r \$0-room;
#X connect 0 0 20 0;
#X connect 1 0 0 1;
#X connect 2 0 1 0;
#X connect 3 0 23 0;
#X connect 4 0 3 1;
#X connect 5 0 4 0;
#X connect 6 0 8 1;
#X connect 7 0 6 0;
#X connect 8 0 26 0;
#X connect 9 0 11 1;
#X connect 10 0 9 0;
#X connect 11 0 29 0;
#X connect 12 0 2 1;
#X connect 13 0 5 1;
#X connect 14 0 7 1;
#X connect 15 0 10 1;
#X connect 16 0 0 0;
#X connect 16 0 3 0;
#X connect 16 0 8 0;
#X connect 16 0 11 0;
#X connect 18 0 19 0;
#X connect 18 0 30 0;
#X connect 19 0 2 0;
#X connect 19 0 17 0;
#X connect 21 0 22 0;
#X connect 21 0 31 0;
#X connect 22 0 5 0;
#X connect 22 0 17 0;
#X connect 24 0 25 0;
#X connect 24 0 32 0;
#X connect 25 0 7 0;
#X connect 25 0 17 0;
#X connect 27 0 28 0;
#X connect 27 0 33 0;
#X connect 28 0 10 0;
#X connect 28 0 17 0;
#X connect 34 0 1 1;
#X connect 34 0 4 1;
#X connect 34 0 6 1;
#X connect 34 0 9 1;
#X connect 35 0 34 0;
#X restore 36 134 pd combfilters-left2;
#N canvas 261 41 778 367 combfilters-right1 0;
#X obj 46 244 +~;
#X obj 61 219 *~ 0.3;
#X obj 61 194 lop~ 1000;
#X obj 231 244 +~;
#X obj 246 219 *~ 0.3;
#X obj 246 194 lop~ 1000;
#X obj 429 218 *~ 0.3;
#X obj 429 193 lop~ 1000;
#X obj 414 241 +~;
#X obj 610 218 *~ 0.3;
#X obj 610 193 lop~ 1000;
#X obj 595 241 +~;
#X obj 112 170 r \$0-frequency;
#X obj 297 170 r \$0-frequency;
#X obj 480 167 r \$0-frequency;
#X obj 661 167 r \$0-frequency;
#X obj 46 28 inlet~;
#X obj 338 326 outlet~;
#X floatatom 70 119 5 0 0 0 - - -;
#X floatatom 255 121 5 0 0 0 - - -;
#X floatatom 439 119 5 0 0 0 - - -;
#X floatatom 622 121 5 0 0 0 - - -;
#X obj 61 141 delread~ \$0-comb1right;
#X obj 246 142 delread~ \$0-comb2right;
#X obj 429 141 delread~ \$0-comb3right;
#X obj 610 141 delread~ \$0-comb4right;
#X obj 61 97 r \$0-comb1right;
#X obj 246 97 r \$0-comb2right;
#X obj 429 95 r \$0-comb3right;
#X obj 610 97 r \$0-comb4right;
#X obj 46 268 delwrite~ \$0-comb1right 100;
#X obj 231 268 delwrite~ \$0-comb2right 100;
#X obj 414 267 delwrite~ \$0-comb3right 100;
#X obj 595 267 delwrite~ \$0-comb4right 100;
#X obj 279 58 clip 0 0.99;
#X obj 279 28 r \$0-room;
#X connect 0 0 30 0;
#X connect 1 0 0 1;
#X connect 2 0 1 0;
#X connect 3 0 31 0;
#X connect 4 0 3 1;
#X connect 5 0 4 0;
#X connect 6 0 8 1;
#X connect 7 0 6 0;
#X connect 8 0 32 0;
#X connect 9 0 11 1;
#X connect 10 0 9 0;
#X connect 11 0 33 0;
#X connect 12 0 2 1;
#X connect 13 0 5 1;
#X connect 14 0 7 1;
#X connect 15 0 10 1;
#X connect 16 0 0 0;
#X connect 16 0 3 0;
#X connect 16 0 8 0;
#X connect 16 0 11 0;
#X connect 22 0 2 0;
#X connect 22 0 17 0;
#X connect 23 0 5 0;
#X connect 23 0 17 0;
#X connect 24 0 7 0;
#X connect 24 0 17 0;
#X connect 25 0 10 0;
#X connect 25 0 17 0;
#X connect 26 0 18 0;
#X connect 26 0 22 0;
#X connect 27 0 19 0;
#X connect 27 0 23 0;
#X connect 28 0 20 0;
#X connect 28 0 24 0;
#X connect 29 0 21 0;
#X connect 29 0 25 0;
#X connect 34 0 1 1;
#X connect 34 0 4 1;
#X connect 34 0 6 1;
#X connect 34 0 9 1;
#X connect 35 0 34 0;
#X restore 208 99 pd combfilters-right1;
#N canvas 312 366 778 367 combfilters-right2 0;
#X obj 46 244 +~;
#X obj 61 219 *~ 0.3;
#X obj 61 194 lop~ 1000;
#X obj 231 244 +~;
#X obj 246 219 *~ 0.3;
#X obj 246 194 lop~ 1000;
#X obj 429 218 *~ 0.3;
#X obj 429 193 lop~ 1000;
#X obj 414 241 +~;
#X obj 610 218 *~ 0.3;
#X obj 610 193 lop~ 1000;
#X obj 595 241 +~;
#X obj 112 170 r \$0-frequency;
#X obj 297 170 r \$0-frequency;
#X obj 480 167 r \$0-frequency;
#X obj 661 167 r \$0-frequency;
#X obj 46 28 inlet~;
#X obj 338 326 outlet~;
#X floatatom 70 116 5 0 0 0 - - -;
#X floatatom 261 118 5 0 0 0 - - -;
#X floatatom 440 117 5 0 0 0 - - -;
#X floatatom 620 116 5 0 0 0 - - -;
#X obj 279 58 clip 0 0.99;
#X obj 61 90 r \$0-comb5right;
#X obj 246 90 r \$0-comb6right;
#X obj 429 88 r \$0-comb7right;
#X obj 610 89 r \$0-comb8right;
#X obj 61 141 delread~ \$0-comb5right;
#X obj 246 142 delread~ \$0-comb6right;
#X obj 429 141 delread~ \$0-comb7right;
#X obj 610 141 delread~ \$0-comb8right;
#X obj 46 268 delwrite~ \$0-comb5right 100;
#X obj 231 268 delwrite~ \$0-comb6right 100;
#X obj 414 267 delwrite~ \$0-comb7right 100;
#X obj 595 267 delwrite~ \$0-comb8right 100;
#X obj 279 28 r \$0-room;
#X connect 0 0 31 0;
#X connect 1 0 0 1;
#X connect 2 0 1 0;
#X connect 3 0 32 0;
#X connect 4 0 3 1;
#X connect 5 0 4 0;
#X connect 6 0 8 1;
#X connect 7 0 6 0;
#X connect 8 0 33 0;
#X connect 9 0 11 1;
#X connect 10 0 9 0;
#X connect 11 0 34 0;
#X connect 12 0 2 1;
#X connect 13 0 5 1;
#X connect 14 0 7 1;
#X connect 15 0 10 1;
#X connect 16 0 0 0;
#X connect 16 0 3 0;
#X connect 16 0 8 0;
#X connect 16 0 11 0;
#X connect 22 0 1 1;
#X connect 22 0 4 1;
#X connect 22 0 6 1;
#X connect 22 0 9 1;
#X connect 23 0 18 0;
#X connect 23 0 27 0;
#X connect 24 0 19 0;
#X connect 24 0 28 0;
#X connect 25 0 20 0;
#X connect 25 0 29 0;
#X connect 26 0 21 0;
#X connect 26 0 30 0;
#X connect 27 0 2 0;
#X connect 27 0 17 0;
#X connect 28 0 5 0;
#X connect 28 0 17 0;
#X connect 29 0 7 0;
#X connect 29 0 17 0;
#X connect 30 0 10 0;
#X connect 30 0 17 0;
#X connect 35 0 22 0;
#X restore 225 133 pd combfilters-right2;
#N canvas 27 56 358 650 diffusor-right 0;
#X obj 51 107 *~ 0.5;
#X obj 36 132 +~;
#X obj 66 132 -~;
#X obj 36 26 inlet~;
#X obj 81 238 *~ 0.5;
#X obj 66 263 +~;
#X obj 96 263 -~;
#X obj 111 368 *~ 0.5;
#X obj 96 393 +~;
#X obj 126 393 -~;
#X obj 141 498 *~ 0.5;
#X obj 126 523 +~;
#X obj 156 523 -~;
#X obj 156 605 outlet~;
#X text 95 28 freeverb's diffusor;
#X obj 156 576 hip~ 5;
#X floatatom 214 70 5 0 0 0 - - -;
#X floatatom 244 203 5 0 0 0 - - -;
#X floatatom 280 334 5 0 0 0 - - -;
#X floatatom 304 464 5 0 0 0 - - -;
#X obj 51 53 r \$0-allpass1right;
#X obj 51 80 delread~ \$0-allpass1right;
#X obj 36 158 delwrite~ \$0-allpass1right 40;
#X obj 81 186 r \$0-allpass2right;
#X obj 81 211 delread~ \$0-allpass2right;
#X obj 66 290 delwrite~ \$0-allpass2right 40;
#X obj 111 317 r \$0-allpass3right;
#X obj 111 341 delread~ \$0-allpass3right;
#X obj 96 420 delwrite~ \$0-allpass3right 40;
#X obj 141 447 r \$0-allpass4right;
#X obj 141 471 delread~ \$0-allpass4right;
#X obj 126 550 delwrite~ \$0-allpass4right 40;
#X connect 0 0 1 1;
#X connect 1 0 22 0;
#X connect 2 0 5 0;
#X connect 2 0 6 1;
#X connect 3 0 1 0;
#X connect 3 0 2 1;
#X connect 4 0 5 1;
#X connect 5 0 25 0;
#X connect 6 0 8 0;
#X connect 6 0 9 1;
#X connect 7 0 8 1;
#X connect 8 0 28 0;
#X connect 9 0 11 0;
#X connect 9 0 12 1;
#X connect 10 0 11 1;
#X connect 11 0 31 0;
#X connect 12 0 15 0;
#X connect 15 0 13 0;
#X connect 20 0 16 0;
#X connect 20 0 21 0;
#X connect 21 0 0 0;
#X connect 21 0 2 0;
#X connect 23 0 17 0;
#X connect 23 0 24 0;
#X connect 24 0 4 0;
#X connect 24 0 6 0;
#X connect 26 0 18 0;
#X connect 26 0 27 0;
#X connect 27 0 7 0;
#X connect 27 0 9 0;
#X connect 29 0 19 0;
#X connect 29 0 30 0;
#X connect 30 0 10 0;
#X connect 30 0 12 0;
#X restore 208 169 pd diffusor-right;
#X obj 208 61 *~ 0.015;
#X obj 15 226 *~ 1;
#X obj 208 228 *~ 1;
#X obj 94 228 *~ 1;
#X obj 169 228 *~ 1;
#X obj 115 202 r \$0-dry;
#X obj 229 203 r \$0-wet;
#X obj 36 201 r \$0-wet;
#X obj 94 14 inlet~;
#X obj 208 14 inlet~;
#X obj 15 268 outlet~;
#X obj 169 269 outlet~;
#X obj 312 14 inlet;
#X obj 374 14 inlet;
#X obj 462 14 inlet;
#X obj 544 16 inlet;
#N canvas 0 22 207 207 room 0;
#X obj 32 35 inlet;
#X obj 32 63 * 0.28;
#X obj 32 94 + 0.7;
#X obj 32 160 outlet;
#X text 80 65 scaleroom;
#X text 76 94 offsetroom;
#X obj 47 126 s \$0-room;
#X connect 0 0 1 0;
#X connect 1 0 2 0;
#X connect 2 0 3 0;
#X connect 2 0 6 0;
#X restore 312 45 pd room;
#N canvas 684 169 244 376 frequency 0;
#X obj 60 222 samplerate~;
#X obj 33 8 inlet;
#X obj 33 194 t f b;
#X obj 33 249 *;
#X obj 53 303 s \$0-frequency;
#X obj 33 327 outlet;
#X obj 33 64 * 0.4;
#X text 76 66 scaledamp;
#X obj 33 38 clip 0 2;
#X obj 33 90 t b f;
#X obj 33 141 -;
#X msg 33 116 1;
#X obj 33 168 abs;
#X obj 33 275 * 0.5;
#X text 153 303 for [lop~];
#X connect 0 0 3 1;
#X connect 1 0 8 0;
#X connect 2 0 3 0;
#X connect 2 1 0 0;
#X connect 3 0 13 0;
#X connect 6 0 9 0;
#X connect 8 0 6 0;
#X connect 9 0 11 0;
#X connect 9 1 10 1;
#X connect 10 0 12 0;
#X connect 11 0 10 0;
#X connect 12 0 2 0;
#X connect 13 0 5 0;
#X connect 13 0 4 0;
#X restore 374 45 pd frequency;
#N canvas 0 22 170 187 scalewet 0;
#X obj 22 42 inlet;
#X obj 22 143 outlet;
#X obj 22 73 * 3;
#X text 49 74 scalewet;
#X obj 40 112 s \$0-wet;
#X connect 0 0 2 0;
#X connect 2 0 1 0;
#X connect 2 0 4 0;
#X restore 544 45 pd scalewet;
#N canvas 0 22 220 198 scaledry 0;
#X obj 32 74 * 2;
#X obj 32 40 inlet;
#X obj 32 141 outlet;
#X text 58 75 scaledry;
#X obj 41 105 s \$0-dry;
#X connect 0 0 2 0;
#X connect 0 0 4 0;
#X connect 1 0 0 0;
#X restore 462 45 pd scaledry;
#X floatatom 312 70 5 0 0 0 - - -;
#X floatatom 374 70 10 0 0 0 - - -;
#X floatatom 462 69 5 0 0 0 - - -;
#X floatatom 544 69 5 0 0 0 - - -;
#N canvas 405 27 635 684 tuning 0;
#X msg 332 81 1139 \, 1211 \, 1300 \, 1379 \, 1445 \, 1514 \, 1580
\, 1640;
#X text 72 57 combfilter tunings left;
#X text 377 56 combfilter tunings right;
#X text 71 360 allpass tunings left;
#X text 383 355 allpass tunings right;
#N canvas 243 170 195 233 sampstoms 0;
#X obj 27 21 inlet;
#X obj 54 86 samplerate~;
#X obj 27 111 /;
#X obj 27 57 t f b;
#X obj 27 136 * 1000;
#X obj 27 162 outlet;
#X connect 0 0 3 0;
#X connect 1 0 2 1;
#X connect 2 0 4 0;
#X connect 3 0 2 0;
#X connect 3 1 1 0;
#X connect 4 0 5 0;
#X restore 30 107 pd sampstoms;
#X msg 30 82 1116 \, 1188 \, 1277 \, 1356 \, 1422 \, 1491 \, 1557 \,
1617;
#X obj 57 188 +;
#X msg 57 159 1;
#X obj 30 135 t f b;
#X obj 87 188 f;
#X obj 30 56 t b b;
#X msg 87 159 0;
#X obj 57 212 pack f \$0;
#X msg 57 238 \$2-comb\$1left;
#X obj 30 282 s;
#X obj 57 265 symbol;
#N canvas 0 22 195 233 sampstoms 0;
#X obj 27 21 inlet;
#X obj 54 86 samplerate~;
#X obj 27 111 /;
#X obj 27 57 t f b;
#X obj 27 136 * 1000;
#X obj 27 162 outlet;
#X connect 0 0 3 0;
#X connect 1 0 2 1;
#X connect 2 0 4 0;
#X connect 3 0 2 0;
#X connect 3 1 1 0;
#X connect 4 0 5 0;
#X restore 332 107 pd sampstoms;
#X obj 359 188 +;
#X msg 359 159 1;
#X obj 332 135 t f b;
#X obj 389 188 f;
#X msg 389 159 0;
#X obj 359 212 pack f \$0;
#X obj 332 282 s;
#X obj 359 265 symbol;
#X obj 332 56 t b b;
#X msg 359 238 \$2-comb\$1right;
#X obj 30 360 t b b;
#N canvas 0 22 195 233 sampstoms 0;
#X obj 27 21 inlet;
#X obj 54 86 samplerate~;
#X obj 27 111 /;
#X obj 27 57 t f b;
#X obj 27 136 * 1000;
#X obj 27 162 outlet;
#X connect 0 0 3 0;
#X connect 1 0 2 1;
#X connect 2 0 4 0;
#X connect 3 0 2 0;
#X connect 3 1 1 0;
#X connect 4 0 5 0;
#X restore 30 411 pd sampstoms;
#X obj 57 492 +;
#X msg 57 463 1;
#X obj 30 439 t f b;
#X obj 87 492 f;
#X msg 87 463 0;
#X obj 57 516 pack f \$0;
#X obj 30 586 s;
#X obj 57 569 symbol;
#X obj 334 356 t b b;
#N canvas 0 22 195 233 sampstoms 0;
#X obj 27 21 inlet;
#X obj 54 86 samplerate~;
#X obj 27 111 /;
#X obj 27 57 t f b;
#X obj 27 136 * 1000;
#X obj 27 162 outlet;
#X connect 0 0 3 0;
#X connect 1 0 2 1;
#X connect 2 0 4 0;
#X connect 3 0 2 0;
#X connect 3 1 1 0;
#X connect 4 0 5 0;
#X restore 334 407 pd sampstoms;
#X obj 361 488 +;
#X msg 361 459 1;
#X obj 334 435 t f b;
#X obj 391 488 f;
#X msg 391 459 0;
#X obj 361 512 pack f \$0;
#X obj 334 582 s;
#X obj 361 565 symbol;
#X obj 30 22 loadbang;
#X obj 332 27 loadbang;
#X obj 30 334 loadbang;
#X obj 334 331 loadbang;
#X obj 268 41 bng 15 250 50 0 empty empty empty 17 7 0 10 -262144 -1
-1;
#X msg 30 386 225 \, 556 \, 441 \, 341;
#X msg 334 380 248 \, 579 \, 464 \, 364;
#X msg 57 542 \$2-allpass\$1left;
#X msg 361 539 \$2-allpass\$1right;
#X text 27 624 Original Freeverb delay line lengths are converted to
milliseconds \, based on samplerate.;
#X connect 0 0 17 0;
#X connect 5 0 9 0;
#X connect 6 0 5 0;
#X connect 7 0 10 0;
#X connect 7 0 13 0;
#X connect 8 0 7 0;
#X connect 9 0 15 0;
#X connect 9 1 8 0;
#X connect 10 0 7 1;
#X connect 11 0 6 0;
#X connect 11 1 12 0;
#X connect 12 0 10 0;
#X connect 13 0 14 0;
#X connect 14 0 16 0;
#X connect 16 0 15 1;
#X connect 17 0 20 0;
#X connect 18 0 21 0;
#X connect 18 0 23 0;
#X connect 19 0 18 0;
#X connect 20 0 24 0;
#X connect 20 1 19 0;
#X connect 21 0 18 1;
#X connect 22 0 21 0;
#X connect 23 0 27 0;
#X connect 25 0 24 1;
#X connect 26 0 0 0;
#X connect 26 1 22 0;
#X connect 27 0 25 0;
#X connect 28 0 53 0;
#X connect 28 1 34 0;
#X connect 29 0 32 0;
#X connect 30 0 33 0;
#X connect 30 0 35 0;
#X connect 31 0 30 0;
#X connect 32 0 36 0;
#X connect 32 1 31 0;
#X connect 33 0 30 1;
#X connect 34 0 33 0;
#X connect 35 0 55 0;
#X connect 37 0 36 1;
#X connect 38 0 54 0;
#X connect 38 1 44 0;
#X connect 39 0 42 0;
#X connect 40 0 43 0;
#X connect 40 0 45 0;
#X connect 41 0 40 0;
#X connect 42 0 46 0;
#X connect 42 1 41 0;
#X connect 43 0 40 1;
#X connect 44 0 43 0;
#X connect 45 0 56 0;
#X connect 47 0 46 1;
#X connect 48 0 11 0;
#X connect 49 0 26 0;
#X connect 50 0 28 0;
#X connect 51 0 38 0;
#X connect 52 0 11 0;
#X connect 52 0 28 0;
#X connect 52 0 26 0;
#X connect 52 0 38 0;
#X connect 53 0 29 0;
#X connect 54 0 39 0;
#X connect 55 0 37 0;
#X connect 56 0 47 0;
#X restore 410 141 pd tuning;
#X connect 0 0 1 0;
#X connect 1 0 7 0;
#X connect 2 0 1 0;
#X connect 3 0 5 0;
#X connect 4 0 5 0;
#X connect 5 0 8 0;
#X connect 6 0 3 0;
#X connect 6 0 0 0;
#X connect 6 0 4 0;
#X connect 6 0 2 0;
#X connect 7 0 16 0;
#X connect 8 0 17 0;
#X connect 9 0 16 0;
#X connect 10 0 17 0;
#X connect 11 0 10 1;
#X connect 11 0 9 1;
#X connect 12 0 8 1;
#X connect 13 0 7 1;
#X connect 14 0 6 0;
#X connect 14 0 9 0;
#X connect 15 0 6 0;
#X connect 15 0 10 0;
#X connect 18 0 22 0;
#X connect 19 0 23 0;
#X connect 20 0 25 0;
#X connect 21 0 24 0;
#X connect 22 0 26 0;
#X connect 23 0 27 0;
#X connect 24 0 29 0;
#X connect 25 0 28 0;
#X restore 92 1402 pd vfreeverb~;
#X text 345 1503 Katja Vetter May 2012;
#X text 346 1472 Freeverb implemented with Pd vanilla objects;
#X obj 1083 132 s rS;
#X obj 1150 133 s d;
#X obj 1205 140 s dry;
#X obj 1270 139 s wet;
#X obj 146 1314 r rS;
#X obj 267 1303 r d;
#X obj 314 1335 r dry;
#X obj 304 1382 r wet;
#X obj 236 1333 * 2;
#X obj 1325 122 s kill;
#X obj 1002 1073 r kill;
#X obj 796 1300 loadbang;
#X msg 796 1324 \; pd dsp 1;
#X msg 977 1145 \; pd dsp 0, f 10;
#X obj 998 1109 sel 1 0;
#X msg 1090 1138 \; pd dsp 1, f 10;
#X obj 610 53 route /note /fullOrgan /jimmySmith /charlesEarland /cutoff
/resonance /roomSize /damping /dry /wet /kill, f 104;
#X connect 0 0 1 0;
#X connect 1 0 216 0;
#X connect 4 0 2 0;
#X connect 4 1 3 0;
#X connect 4 2 172 0;
#X connect 5 0 6 0;
#X connect 5 1 11 0;
#X connect 5 2 16 0;
#X connect 5 3 21 0;
#X connect 5 4 26 0;
#X connect 5 5 31 0;
#X connect 5 6 36 0;
#X connect 5 7 41 0;
#X connect 5 8 46 0;
#X connect 5 9 51 0;
#X connect 5 10 56 0;
#X connect 5 11 61 0;
#X connect 5 12 66 0;
#X connect 5 13 67 0;
#X connect 5 14 68 0;
#X connect 5 15 69 0;
#X connect 5 16 70 0;
#X connect 5 17 71 0;
#X connect 5 18 72 0;
#X connect 5 19 73 0;
#X connect 5 20 74 0;
#X connect 5 21 75 0;
#X connect 5 22 76 0;
#X connect 5 23 77 0;
#X connect 6 0 7 0;
#X connect 6 1 8 0;
#X connect 6 2 9 0;
#X connect 6 3 10 0;
#X connect 7 0 171 0;
#X connect 8 0 171 0;
#X connect 9 0 171 0;
#X connect 10 0 171 0;
#X connect 11 0 12 0;
#X connect 11 1 13 0;
#X connect 11 2 14 0;
#X connect 11 3 15 0;
#X connect 12 0 171 0;
#X connect 13 0 171 0;
#X connect 14 0 171 0;
#X connect 15 0 171 0;
#X connect 16 0 17 0;
#X connect 16 1 18 0;
#X connect 16 2 19 0;
#X connect 16 3 20 0;
#X connect 17 0 171 0;
#X connect 18 0 171 0;
#X connect 19 0 171 0;
#X connect 20 0 171 0;
#X connect 21 0 22 0;
#X connect 21 1 23 0;
#X connect 21 2 24 0;
#X connect 21 3 25 0;
#X connect 22 0 171 0;
#X connect 23 0 171 0;
#X connect 24 0 171 0;
#X connect 25 0 171 0;
#X connect 26 0 27 0;
#X connect 26 1 28 0;
#X connect 26 2 29 0;
#X connect 26 3 30 0;
#X connect 27 0 171 0;
#X connect 28 0 171 0;
#X connect 29 0 171 0;
#X connect 30 0 171 0;
#X connect 31 0 32 0;
#X connect 31 1 33 0;
#X connect 31 2 34 0;
#X connect 31 3 35 0;
#X connect 32 0 171 0;
#X connect 33 0 171 0;
#X connect 34 0 171 0;
#X connect 35 0 171 0;
#X connect 36 0 37 0;
#X connect 36 1 38 0;
#X connect 36 2 39 0;
#X connect 36 3 40 0;
#X connect 37 0 171 0;
#X connect 38 0 171 0;
#X connect 39 0 171 0;
#X connect 40 0 171 0;
#X connect 41 0 42 0;
#X connect 41 1 43 0;
#X connect 41 2 44 0;
#X connect 41 3 45 0;
#X connect 42 0 171 0;
#X connect 43 0 171 0;
#X connect 44 0 171 0;
#X connect 45 0 171 0;
#X connect 46 0 47 0;
#X connect 46 1 48 0;
#X connect 46 2 49 0;
#X connect 46 3 50 0;
#X connect 47 0 171 0;
#X connect 48 0 171 0;
#X connect 49 0 171 0;
#X connect 50 0 171 0;
#X connect 51 0 52 0;
#X connect 51 1 53 0;
#X connect 51 2 54 0;
#X connect 51 3 55 0;
#X connect 52 0 171 0;
#X connect 53 0 171 0;
#X connect 54 0 171 0;
#X connect 55 0 171 0;
#X connect 56 0 57 0;
#X connect 56 1 58 0;
#X connect 56 2 59 0;
#X connect 56 3 60 0;
#X connect 57 0 171 0;
#X connect 58 0 171 0;
#X connect 59 0 171 0;
#X connect 60 0 171 0;
#X connect 61 0 62 0;
#X connect 61 1 63 0;
#X connect 61 2 64 0;
#X connect 61 3 65 0;
#X connect 62 0 171 0;
#X connect 63 0 171 0;
#X connect 64 0 171 0;
#X connect 65 0 171 0;
#X connect 66 0 78 0;
#X connect 66 1 79 0;
#X connect 66 2 80 0;
#X connect 66 3 81 0;
#X connect 67 0 82 0;
#X connect 67 1 83 0;
#X connect 67 2 84 0;
#X connect 67 3 85 0;
#X connect 68 0 86 0;
#X connect 68 1 87 0;
#X connect 68 2 88 0;
#X connect 68 3 89 0;
#X connect 69 0 90 0;
#X connect 69 1 91 0;
#X connect 69 2 92 0;
#X connect 69 3 93 0;
#X connect 70 0 94 0;
#X connect 70 1 95 0;
#X connect 70 2 96 0;
#X connect 70 3 97 0;
#X connect 71 0 98 0;
#X connect 71 1 99 0;
#X connect 71 2 100 0;
#X connect 71 3 101 0;
#X connect 72 0 105 0;
#X connect 72 1 102 0;
#X connect 72 2 103 0;
#X connect 72 3 104 0;
#X connect 73 0 106 0;
#X connect 73 1 107 0;
#X connect 73 2 109 0;
#X connect 73 3 108 0;
#X connect 74 0 110 0;
#X connect 74 1 111 0;
#X connect 74 2 112 0;
#X connect 74 3 113 0;
#X connect 75 0 114 0;
#X connect 75 1 115 0;
#X connect 75 2 116 0;
#X connect 75 3 117 0;
#X connect 76 0 118 0;
#X connect 76 1 119 0;
#X connect 76 2 120 0;
#X connect 76 3 121 0;
#X connect 77 0 122 0;
#X connect 77 1 123 0;
#X connect 77 2 124 0;
#X connect 77 3 125 0;
#X connect 78 0 171 0;
#X connect 79 0 171 0;
#X connect 80 0 171 0;
#X connect 81 0 171 0;
#X connect 82 0 171 0;
#X connect 83 0 171 0;
#X connect 84 0 171 0;
#X connect 85 0 171 0;
#X connect 86 0 171 0;
#X connect 87 0 171 0;
#X connect 88 0 171 0;
#X connect 89 0 171 0;
#X connect 90 0 171 0;
#X connect 91 0 171 0;
#X connect 92 0 171 0;
#X connect 93 0 171 0;
#X connect 94 0 171 0;
#X connect 95 0 171 0;
#X connect 96 0 171 0;
#X connect 97 0 171 0;
#X connect 98 0 171 0;
#X connect 99 0 171 0;
#X connect 100 0 171 0;
#X connect 101 0 171 0;
#X connect 102 0 171 0;
#X connect 103 0 171 0;
#X connect 104 0 171 0;
#X connect 105 0 171 0;
#X connect 106 0 171 0;
#X connect 107 0 171 0;
#X connect 108 0 171 0;
#X connect 109 0 171 0;
#X connect 110 0 171 0;
#X connect 111 0 171 0;
#X connect 112 0 171 0;
#X connect 113 0 171 0;
#X connect 114 0 171 0;
#X connect 115 0 171 0;
#X connect 116 0 171 0;
#X connect 117 0 171 0;
#X connect 118 0 171 0;
#X connect 119 0 171 0;
#X connect 120 0 171 0;
#X connect 121 0 171 0;
#X connect 122 0 171 0;
#X connect 123 0 171 0;
#X connect 124 0 171 0;
#X connect 125 0 171 0;
#X connect 126 0 161 0;
#X connect 128 0 131 0;
#X connect 129 0 131 1;
#X connect 130 0 131 2;
#X connect 131 0 162 0;
#X connect 135 0 167 0;
#X connect 137 0 135 1;
#X connect 138 0 135 1;
#X connect 139 0 135 1;
#X connect 140 0 135 0;
#X connect 141 0 142 0;
#X connect 143 0 150 0;
#X connect 144 0 151 0;
#X connect 145 0 152 0;
#X connect 146 0 153 0;
#X connect 147 0 154 0;
#X connect 148 0 155 0;
#X connect 149 0 156 0;
#X connect 158 0 141 0;
#X connect 158 1 143 0;
#X connect 158 2 144 0;
#X connect 158 3 145 0;
#X connect 158 4 146 0;
#X connect 158 5 147 0;
#X connect 158 6 148 0;
#X connect 158 7 149 0;
#X connect 158 8 159 0;
#X connect 159 0 160 0;
#X connect 161 0 128 0;
#X connect 161 1 129 0;
#X connect 161 2 130 0;
#X connect 162 0 140 0;
#X connect 162 1 137 0;
#X connect 162 2 138 0;
#X connect 162 3 139 0;
#X connect 162 4 166 0;
#X connect 162 5 163 0;
#X connect 162 6 164 0;
#X connect 162 7 165 0;
#X connect 163 0 135 1;
#X connect 164 0 135 1;
#X connect 165 0 135 1;
#X connect 166 0 135 1;
#X connect 167 0 194 0;
#X connect 168 0 158 0;
#X connect 169 0 158 0;
#X connect 170 0 158 0;
#X connect 171 0 126 0;
#X connect 172 0 161 1;
#X connect 174 0 170 0;
#X connect 177 0 168 0;
#X connect 178 0 169 0;
#X connect 179 0 180 0;
#X connect 180 0 191 0;
#X connect 181 0 182 0;
#X connect 182 0 185 0;
#X connect 183 0 184 0;
#X connect 184 0 194 1;
#X connect 185 0 183 0;
#X connect 191 0 194 2;
#X connect 192 0 181 0;
#X connect 193 0 179 0;
#X connect 194 0 197 0;
#X connect 194 0 197 1;
#X connect 197 0 136 0;
#X connect 197 0 136 1;
#X connect 204 0 197 2;
#X connect 205 0 208 0;
#X connect 206 0 197 4;
#X connect 207 0 197 5;
#X connect 208 0 197 3;
#X connect 210 0 214 0;
#X connect 211 0 212 0;
#X connect 214 0 213 0;
#X connect 214 1 215 0;
#X connect 216 0 4 0;
#X connect 216 0 5 0;
#X connect 216 1 173 0;
#X connect 216 2 175 0;
#X connect 216 3 176 0;
#X connect 216 4 195 0;
#X connect 216 5 196 0;
#X connect 216 6 200 0;
#X connect 216 7 201 0;
#X connect 216 8 202 0;
#X connect 216 9 203 0;
#X connect 216 10 209 0;
