#N canvas 11 430 320 350 12;
#X obj 55 108 *~;
#X obj 46 39 unpack;
#X obj 98 73 adsr~;
#X obj 46 12 inlet;
#X obj 55 132 outlet~;
#X obj 31 73 additive;
#X connect 0 0 4 0;
#X connect 1 0 5 0;
#X connect 1 1 2 0;
#X connect 2 0 0 1;
#X connect 3 0 1 0;
#X connect 5 0 0 0;
